<svg id="svg" fill="#000000" stroke="#000000" width="100" height="100" version="1.1" viewBox="144 144 512 512" xmlns="http://www.w3.org/2000/svg">
    <g id="IconSvg_bgCarrier" stroke-width="0"></g>
    <g id="IconSvg_tracerCarrier" stroke-linecap="round" stroke-linejoin="round" stroke="#CCCCCC" stroke-width="0">
      <defs xmlns="http://www.w3.org/2000/svg">
  <clipPath id="a">
   <path d="m148.09 211h503.81v378h-503.81z"></path>
  </clipPath>
 </defs>
<g xmlns="http://www.w3.org/2000/svg" clip-path="url(#a)">
  <path d="m621.9 588.21h-332.06c-10.012 0.011718-19.367-4.9844-24.93-13.305l-116.82-174.91 116.81-174.91c5.5625-8.3242 14.922-13.32 24.934-13.312h332.06c7.9492 0.003906 15.57 3.1562 21.191 8.7695 5.625 5.6133 8.793 13.23 8.8086 21.176v316.55-0.003907c-0.015625 7.9492-3.1836 15.562-8.8086 21.176-5.6211 5.6133-13.242 8.7695-21.191 8.7695zm-460.09-188.21 112.59 168.56c3.4492 5.1562 9.2422 8.25 15.445 8.2461h332.06c4.9219 0 9.6445-1.9492 13.133-5.4258 3.4844-3.4727 5.4492-8.1914 5.4609-13.113v-316.54c-0.011719-4.9219-1.9766-9.6406-5.4609-13.113-3.4883-3.4766-8.2109-5.4258-13.133-5.4258h-332.06c-6.2031-0.003906-12 3.0938-15.449 8.25z"></path>
 </g>
<path xmlns="http://www.w3.org/2000/svg" d="m482.55 441.84-42.922-42.922 40.762-40.758v-0.003906c2.2266-2.2266 2.2266-5.8359 0-8.0625-2.2266-2.2266-5.8398-2.2266-8.0664 0l-40.758 40.758-40.758-40.758c-2.2266-2.2266-5.8359-2.2266-8.0625 0-2.2305 2.2266-2.2305 5.8359 0 8.0625l40.754 40.758-42.922 42.922v0.003906c-2.2266 2.2266-2.2266 5.8359 0 8.0664 2.2266 2.2266 5.8359 2.2266 8.0664 0l42.922-42.922 42.922 42.922-0.003906-0.003906c2.2266 2.2305 5.8398 2.2305 8.0664 0 2.2266-2.2266 2.2266-5.8359 0-8.0625z"></path>

      </g>
     <g id="IconSvg_iconCarrier">
      <defs xmlns="http://www.w3.org/2000/svg">
  <clipPath id="a">
   <path d="m148.09 211h503.81v378h-503.81z"></path>
  </clipPath>
 </defs>
<g xmlns="http://www.w3.org/2000/svg" clip-path="url(#a)">
  <path d="m621.9 588.21h-332.06c-10.012 0.011718-19.367-4.9844-24.93-13.305l-116.82-174.91 116.81-174.91c5.5625-8.3242 14.922-13.32 24.934-13.312h332.06c7.9492 0.003906 15.57 3.1562 21.191 8.7695 5.625 5.6133 8.793 13.23 8.8086 21.176v316.55-0.003907c-0.015625 7.9492-3.1836 15.562-8.8086 21.176-5.6211 5.6133-13.242 8.7695-21.191 8.7695zm-460.09-188.21 112.59 168.56c3.4492 5.1562 9.2422 8.25 15.445 8.2461h332.06c4.9219 0 9.6445-1.9492 13.133-5.4258 3.4844-3.4727 5.4492-8.1914 5.4609-13.113v-316.54c-0.011719-4.9219-1.9766-9.6406-5.4609-13.113-3.4883-3.4766-8.2109-5.4258-13.133-5.4258h-332.06c-6.2031-0.003906-12 3.0938-15.449 8.25z"></path>
 </g>
<path xmlns="http://www.w3.org/2000/svg" d="m482.55 441.84-42.922-42.922 40.762-40.758v-0.003906c2.2266-2.2266 2.2266-5.8359 0-8.0625-2.2266-2.2266-5.8398-2.2266-8.0664 0l-40.758 40.758-40.758-40.758c-2.2266-2.2266-5.8359-2.2266-8.0625 0-2.2305 2.2266-2.2305 5.8359 0 8.0625l40.754 40.758-42.922 42.922v0.003906c-2.2266 2.2266-2.2266 5.8359 0 8.0664 2.2266 2.2266 5.8359 2.2266 8.0664 0l42.922-42.922 42.922 42.922-0.003906-0.003906c2.2266 2.2305 5.8398 2.2305 8.0664 0 2.2266-2.2266 2.2266-5.8359 0-8.0625z"></path>

      </g>
      </svg>