<svg xmlns="http://www.w3.org/2000/svg" width="880" height="1024"><path d="M68.968 2.597C33.709 12.211 9.21 38.091 1.888 73.571.286 81.358-.171 226.046.053 518.874l.689 433.855 5.264 13.286c10.303 25.412 30.452 44.648 56.321 53.573 10.992 3.894 31.365 4.118 377.991 4.118h366.318l13.286-5.264c25.412-10.303 44.648-30.452 53.573-56.321 3.894-10.992 4.118-34.113 4.118-450.11s-.232-439.118-4.118-450.11c-8.934-25.869-28.16-46.018-53.573-56.321L806.636.316 443.755-.141c-307.473-.457-364.716 0-374.786 2.748zm739.95 37.542c11.905 5.264 23.578 16.944 28.849 28.849 4.118 8.7 4.35 27.704 4.35 443.012s-.232 434.312-4.35 443.012c-5.264 11.905-16.944 23.578-28.849 28.849-8.7 4.118-25.412 4.35-369.747 4.35s-361.046-.232-369.747-4.35c-11.905-5.264-23.578-16.944-28.849-28.849-4.118-8.7-4.35-27.704-4.35-443.012s.232-434.312 4.35-443.012c5.264-11.905 16.944-23.578 28.849-28.849 8.7-4.118 25.412-4.35 369.747-4.35s361.046.232 369.747 4.35z"/><path d="M101.246 93.487c-9.389 4.35-10.07 10.07-10.07 88.832 0 79.674.457 84.481 10.759 89.064 7.787 3.661 666.693 3.661 674.48 0 10.303-4.583 10.759-9.389 10.759-89.064s-.457-84.481-10.759-89.064c-7.555-3.437-668.063-3.205-675.161.232zm649.292 88.832v54.951H127.804V127.376h622.734v54.951zM132.379 330.9c-25.645 8.244-39.833 27.247-39.833 52.884 0 21.751 9.846 38.231 29.53 48.766 8.244 4.583 12.594 5.039 42.357 5.039s34.113-.457 42.357-5.039c19.692-10.535 29.53-27.015 29.53-48.766 0-16.712-5.039-28.849-16.255-39.152-13.286-12.594-20.149-14.421-52.203-15.11-16.255-.232-32.278.232-35.494 1.37zm62.962 40.298c3.661 3.437 5.72 8.244 5.72 12.594s-2.059 9.157-5.72 12.594c-5.264 5.496-7.098 5.72-30.908 5.72s-25.645-.232-30.908-5.72c-3.661-3.437-5.72-8.244-5.72-12.594s2.059-9.157 5.72-12.594c5.264-5.496 7.098-5.72 30.908-5.72s25.645.232 30.908 5.72zM315.538 330.9c-25.645 8.244-39.833 27.247-39.833 52.884 0 21.751 9.846 38.231 29.53 48.766 8.244 4.583 12.594 5.039 42.357 5.039s34.113-.457 42.357-5.039c19.692-10.535 29.53-27.015 29.53-48.766 0-16.712-5.039-28.849-16.255-39.152-13.286-12.594-20.149-14.421-52.203-15.11-16.255-.232-32.278.232-35.494 1.37zm62.962 40.298c3.661 3.437 5.72 8.244 5.72 12.594s-2.059 9.157-5.72 12.594c-5.264 5.496-7.098 5.72-30.908 5.72s-25.645-.232-30.908-5.72c-3.661-3.437-5.72-8.244-5.72-12.594s2.059-9.157 5.72-12.594c5.264-5.496 7.098-5.72 30.908-5.72s25.645.232 30.908 5.72zM498.696 330.9c-25.645 8.244-39.833 27.247-39.833 52.884 0 21.751 9.846 38.231 29.53 48.766 8.244 4.583 12.594 5.039 42.357 5.039s34.113-.457 42.357-5.039c19.692-10.535 29.53-27.015 29.53-48.766 0-16.712-5.039-28.849-16.255-39.152-13.286-12.594-20.149-14.421-52.203-15.11-16.255-.232-32.278.232-35.494 1.37zm62.963 40.298c3.661 3.437 5.72 8.244 5.72 12.594s-2.059 9.157-5.72 12.594c-5.264 5.496-7.098 5.72-30.908 5.72s-25.645-.232-30.908-5.72c-3.661-3.437-5.72-8.244-5.72-12.594s2.059-9.157 5.72-12.594c5.264-5.496 7.098-5.72 30.908-5.72s25.645.232 30.908 5.72zM681.855 330.9c-25.645 8.244-39.833 27.247-39.833 52.884 0 21.751 9.846 38.231 29.53 48.766 8.244 4.583 12.594 5.039 42.357 5.039s34.113-.457 42.357-5.039c19.692-10.535 29.53-27.015 29.53-48.766 0-16.712-5.039-28.849-16.255-39.152-13.286-12.594-20.149-14.421-52.203-15.11-16.255-.232-32.278.232-35.494 1.37zm62.963 40.298c3.661 3.437 5.72 8.244 5.72 12.594s-2.059 9.157-5.72 12.594c-5.264 5.496-7.098 5.72-30.908 5.72s-25.645-.232-30.908-5.72c-3.661-3.437-5.72-8.244-5.72-12.594s2.059-9.157 5.72-12.594c5.264-5.496 7.098-5.72 30.908-5.72s25.645.232 30.908 5.72zM101.246 478.119c-8.934 4.118-10.07 11.216-10.07 61.36 0 50.825 1.146 57.234 10.759 61.584 7.555 3.437 117.449 3.437 125.003 0 9.614-4.35 10.759-10.759 10.759-61.584s-1.146-57.234-10.759-61.584c-7.098-3.205-118.827-3.205-125.692.232zm99.823 61.352v27.471h-73.265v-54.951h73.265v27.471zM284.405 478.119c-8.934 4.118-10.07 11.216-10.07 61.36 0 50.825 1.146 57.234 10.759 61.584 7.555 3.437 117.449 3.437 125.003 0 9.614-4.35 10.759-10.759 10.759-61.584s-1.146-57.234-10.759-61.584c-7.098-3.205-118.827-3.205-125.692.232zm99.815 61.352v27.471h-73.265v-54.951h73.265v27.471zM467.564 478.119c-8.934 4.118-10.07 11.216-10.07 61.36 0 50.825 1.146 57.234 10.759 61.584 7.555 3.437 117.449 3.437 125.003 0 9.614-4.35 10.759-10.759 10.759-61.584s-1.146-57.234-10.759-61.584c-7.098-3.205-118.827-3.205-125.692.232zm99.815 61.352v27.471h-73.265v-54.951h73.265v27.471zM650.715 478.119c-8.934 4.118-10.07 11.216-10.07 61.36 0 50.825 1.146 57.234 10.759 61.584 7.555 3.437 117.449 3.437 125.003 0 9.614-4.35 10.759-10.759 10.759-61.584s-1.146-57.234-10.759-61.584c-7.098-3.205-118.827-3.205-125.692.232zm99.823 61.352v27.471h-73.265v-54.951h73.265v27.471zM101.246 642.956c-8.934 4.118-10.07 11.216-10.07 61.36 0 50.825 1.146 57.234 10.759 61.584 7.555 3.437 117.449 3.437 125.003 0 9.614-4.35 10.759-10.759 10.759-61.584s-1.146-57.234-10.759-61.584c-7.098-3.205-118.827-3.205-125.692.232zm99.823 61.36v27.471h-73.265v-54.951h73.265v27.471zM284.405 642.956c-8.934 4.118-10.07 11.216-10.07 61.36 0 50.825 1.146 57.234 10.759 61.584 7.555 3.437 117.449 3.437 125.003 0 9.614-4.35 10.759-10.759 10.759-61.584s-1.146-57.234-10.759-61.584c-7.098-3.205-118.827-3.205-125.692.232zm99.815 61.36v27.471h-73.265v-54.951h73.265v27.471zM467.564 642.956c-8.934 4.118-10.07 11.216-10.07 61.36 0 50.825 1.146 57.234 10.759 61.584 7.555 3.437 117.449 3.437 125.003 0 9.614-4.35 10.759-10.759 10.759-61.584s-1.146-57.234-10.759-61.584c-7.098-3.205-118.827-3.205-125.692.232zm99.815 61.36v27.471h-73.265v-54.951h73.265v27.471zM650.715 642.956c-2.748 1.146-6.185 4.807-7.555 7.787-3.437 8.012-3.661 263.979 0 271.758 4.583 9.846 10.303 10.759 70.742 10.759s66.167-.913 70.742-10.759c1.835-3.894 2.516-45.105 2.516-135.763s-.689-131.867-2.516-135.763c-1.37-3.205-5.039-6.866-8.244-8.244-7.098-3.205-118.827-3.205-125.692.232zm99.823 143.782v109.894h-73.265V676.844h73.265v109.894zM101.246 807.801c-8.934 4.118-10.07 11.216-10.07 61.36 0 50.825 1.146 57.234 10.759 61.584 7.555 3.437 117.449 3.437 125.003 0 9.614-4.35 10.759-10.759 10.759-61.584s-1.146-57.234-10.759-61.584c-7.098-3.205-118.827-3.205-125.692.232zm99.823 61.36v27.471h-73.265v-54.951h73.265v27.471zM284.405 807.801c-8.934 4.118-10.07 11.216-10.07 61.36 0 50.825 1.146 57.234 10.759 61.584 7.555 3.437 117.449 3.437 125.003 0 9.614-4.35 10.759-10.759 10.759-61.584s-1.146-57.234-10.759-61.584c-7.098-3.205-118.827-3.205-125.692.232zm99.815 61.36v27.471h-73.265v-54.951h73.265v27.471zM467.564 807.801c-8.934 4.118-10.07 11.216-10.07 61.36 0 50.825 1.146 57.234 10.759 61.584 7.555 3.437 117.449 3.437 125.003 0 9.614-4.35 10.759-10.759 10.759-61.584s-1.146-57.234-10.759-61.584c-7.098-3.205-118.827-3.205-125.692.232zm99.815 61.36v27.471h-73.265v-54.951h73.265v27.471z"/></svg>